<svg width="12" height="14" viewBox="0 0 12 14" fill="none" xmlns="http://www.w3.org/2000/svg">
<path id="Vector" d="M5.77333 3.33333C6.65739 3.33333 7.50523 3.68452 8.13036 4.30964C8.75548 4.93477 9.10667 5.78261 9.10667 6.66667C9.10667 7.55072 8.75548 8.39857 8.13036 9.02369C7.50523 9.64881 6.65739 10 5.77333 10C4.88928 10 4.04143 9.64881 3.41631 9.02369C2.79119 8.39857 2.44 7.55072 2.44 6.66667C2.44 5.78261 2.79119 4.93477 3.41631 4.30964C4.04143 3.68452 4.88928 3.33333 5.77333 3.33333ZM5.77333 4.66667C5.2429 4.66667 4.73419 4.87738 4.35912 5.25245C3.98405 5.62753 3.77333 6.13623 3.77333 6.66667C3.77333 7.1971 3.98405 7.70581 4.35912 8.08088C4.73419 8.45595 5.2429 8.66667 5.77333 8.66667C6.30377 8.66667 6.81247 8.45595 7.18755 8.08088C7.56262 7.70581 7.77333 7.1971 7.77333 6.66667C7.77333 6.13623 7.56262 5.62753 7.18755 5.25245C6.81247 4.87738 6.30377 4.66667 5.77333 4.66667ZM5.77333 0L7.36667 2.28C6.87333 2.1 6.33333 2 5.77333 2C5.21333 2 4.67333 2.1 4.18 2.28L5.77333 0ZM0 3.33333L2.77333 3.1C2.37333 3.44 2.01333 3.85333 1.73333 4.33333C1.44 4.82667 1.27333 5.33333 1.18 5.86L0 3.33333ZM0.0133333 10L1.18667 7.48667C1.28 8 1.46 8.52 1.74 9C2.02 9.49333 2.38 9.90667 2.77333 10.2467L0.0133333 10ZM11.54 3.33333L10.36 5.86C10.2667 5.33333 10.0867 4.82 9.80667 4.33333C9.52667 3.85333 9.17333 3.43333 8.77333 3.09333L11.54 3.33333ZM11.5333 10L8.77333 10.24C9.16667 9.9 9.52 9.48 9.8 9C10.08 8.51333 10.26 8 10.3533 7.47333L11.5333 10ZM5.77333 13.3333L4.16667 11.04C4.66 11.22 5.2 11.3333 5.77333 11.3333C6.32 11.3333 6.86 11.22 7.35333 11.04L5.77333 13.3333Z" fill="#9FA1AE"/>
</svg>
