<svg width="16" height="16" viewBox="0 0 16 16" fill="none" xmlns="http://www.w3.org/2000/svg">
<path id="Vector" d="M11.8334 2.72675L10.1467 4.02008L10.7534 6.06008L9.00005 4.85341L7.24671 6.06008L7.85338 4.02008L6.16671 2.72675L8.29338 2.66675L9.00005 0.666748L9.70671 2.66675L11.8334 2.72675ZM14.1667 7.33341L13.0734 8.16675L13.4667 9.48675L12.3334 8.70675L11.2 9.48675L11.5934 8.16675L10.5 7.33341L11.8734 7.30008L12.3334 6.00008L12.7934 7.30008L14.1667 7.33341ZM12.6467 10.6334C13.2 10.5801 13.7934 11.3667 13.44 11.8667C13.2267 12.1667 13 12.4467 12.72 12.7134C10.1134 15.3334 5.89338 15.3334 3.29338 12.7134C0.686712 10.1134 0.686712 5.88675 3.29338 3.28675C3.56005 3.02008 3.84005 2.78008 4.14005 2.56675C4.64005 2.21341 5.42671 2.80675 5.37338 3.36008C5.19338 5.26675 5.83338 7.24675 7.30005 8.70675C8.76005 10.1734 10.7334 10.8134 12.6467 10.6334ZM11.5534 11.9801C9.66671 11.8734 7.80005 11.0934 6.35338 9.66675C4.90671 8.20675 4.13338 6.33341 4.02671 4.45341C2.15338 6.54675 2.22671 9.76008 4.23338 11.7734C6.24671 13.7801 9.46005 13.8534 11.5534 11.9801Z" fill="#7A67EB"/>
</svg>
