<svg width="18" height="17" viewBox="0 0 18 17" fill="none" xmlns="http://www.w3.org/2000/svg">
<path d="M8.99935 0.666748C7.905 0.666748 6.82137 0.882296 5.81032 1.30109C4.79927 1.71987 3.88061 2.3337 3.10679 3.10752C1.54399 4.67033 0.666016 6.78994 0.666016 9.00008C0.666016 12.6834 3.05768 15.8084 6.36602 16.9167C6.78268 16.9834 6.91602 16.7251 6.91602 16.5001C6.91602 16.3084 6.91602 15.7834 6.91602 15.0917C4.60768 15.5917 4.11602 13.9751 4.11602 13.9751C3.73268 13.0084 3.19102 12.7501 3.19102 12.7501C2.43268 12.2334 3.24935 12.2501 3.24935 12.2501C4.08268 12.3084 4.52435 13.1084 4.52435 13.1084C5.24935 14.3751 6.47435 14.0001 6.94935 13.8001C7.02435 13.2584 7.24102 12.8917 7.47435 12.6834C5.62435 12.4751 3.68268 11.7584 3.68268 8.58342C3.68268 7.65841 3.99935 6.91675 4.54102 6.32508C4.45768 6.11675 4.16602 5.25008 4.62435 4.12508C4.62435 4.12508 5.32435 3.90008 6.91602 4.97508C7.57435 4.79175 8.29102 4.70008 8.99935 4.70008C9.70768 4.70008 10.4243 4.79175 11.0827 4.97508C12.6743 3.90008 13.3743 4.12508 13.3743 4.12508C13.8327 5.25008 13.541 6.11675 13.4577 6.32508C13.9993 6.91675 14.316 7.65841 14.316 8.58342C14.316 11.7667 12.366 12.4667 10.5077 12.6751C10.8077 12.9334 11.0827 13.4417 11.0827 14.2167C11.0827 15.3334 11.0827 16.2334 11.0827 16.5001C11.0827 16.7251 11.216 16.9917 11.641 16.9167C14.9493 15.8001 17.3327 12.6834 17.3327 9.00008C17.3327 7.90573 17.1171 6.8221 16.6983 5.81105C16.2796 4.80001 15.6657 3.88135 14.8919 3.10752C14.1181 2.3337 13.1994 1.71987 12.1884 1.30109C11.1773 0.882296 10.0937 0.666748 8.99935 0.666748Z" fill="#42454D"/>
</svg>
